# xmcd
#
# Track frame offsets:
#	150
#	12967
#	33576
#	46901
#	64301
#	77812
#
# Disc length: 1205 seconds
#
# Revision: 0
# Processed by: cddbd v1.5.1PL0 Copyright (c) Steve Scherf et al.
# Submitted via: audiograbber 1.82.02
#
DISCID=4704b306
DTITLE=Lucy Lehmann - Songs From Ladies Tearoom
DYEAR=2004
DGENRE=Folk
TTITLE0=A Century Too Late
TTITLE1=Deepwater
TTITLE2=How Do You Feel?
TTITLE3=I Should've Said, You Should've Asked
TTITLE4=Somewhere Else
TTITLE5=I'll Tell You A Secret
EXTD=
EXTT0=
EXTT1=
EXTT2=
EXTT3=
EXTT4=
EXTT5=
PLAYORDER=
